<svg version="1.1" xmlns="http://www.w3.org/2000/svg" style="display: block;" viewBox="0 0 2048 2048" width="1024" height="1024" preserveAspectRatio="none">
<defs>
	<linearGradient id="Gradient1" gradientUnits="userSpaceOnUse" x1="972.594" y1="1599.84" x2="776.403" y2="1750.04">
		<stop class="stop0" offset="0" stop-opacity="1" stop-color="rgb(15,141,219)"/>
		<stop class="stop1" offset="1" stop-opacity="1" stop-color="rgb(62,237,231)"/>
	</linearGradient>
</defs>
<path transform="translate(0,0)" fill="rgb(38,37,96)" d="M 788.008 298.39 C 791.048 298.207 794.091 298.073 797.136 297.986 C 830.575 297.078 868.335 297.936 902.079 297.948 L 1101.71 297.937 L 1202.74 297.955 C 1222 297.964 1252.48 297.013 1270.4 300.237 C 1294.09 304.383 1315.97 315.589 1333.18 332.386 C 1380.46 377.619 1372.74 423.694 1374 481.53 C 1396.04 485.382 1431.11 495.001 1436.52 519.922 C 1438.65 529.76 1437.76 551.465 1437.77 562.268 L 1437.81 638.783 C 1437.81 662.554 1438.26 687.171 1437.54 710.849 C 1436.6 741.936 1398.26 752.087 1373.48 757.835 C 1373.68 779.266 1372.79 795.611 1365.68 816.22 C 1350.5 858.968 1313.71 890.402 1269.12 898.731 C 1252.28 901.767 1235.25 900.858 1218.16 900.871 L 1152.73 900.931 C 1147.58 900.93 1128.14 899.879 1124.56 901.646 C 1126.52 905.214 1152.76 905.707 1159.54 906.657 C 1194.28 911.525 1236.59 913.634 1267.98 930.387 C 1276.14 934.746 1276.21 946.525 1279.56 951.162 C 1280.14 951.967 1290.75 953.376 1292.97 953.706 C 1303.27 955.24 1315.66 961.849 1323.26 969.044 C 1341.46 986.264 1342.77 1007.77 1343.27 1030.99 C 1353.68 1040.34 1367.39 1058.09 1375.42 1069.63 C 1419.54 1132.98 1437.53 1197.89 1442.16 1273.87 C 1470.98 1290.41 1486.48 1325.88 1474.22 1359.07 C 1465.44 1382.37 1463.57 1408.82 1461.04 1434.99 C 1457.39 1472.58 1436.45 1494.24 1401.54 1465.59 C 1391.09 1457.01 1398.22 1424.46 1400.4 1410.06 C 1390.39 1408.47 1384.78 1407.01 1375.34 1403.63 C 1372.37 1416.45 1375.78 1435.61 1365.12 1447.02 C 1359.04 1453.53 1351.95 1456.76 1343.11 1457.11 C 1334.2 1457.51 1325.49 1454.31 1318.96 1448.23 C 1305.56 1435.62 1309.92 1422 1310.84 1406.18 C 1312.21 1382.38 1312.11 1370.98 1330.22 1353.28 C 1324.85 1319.04 1334.28 1292.96 1363.28 1273.53 C 1360.28 1218.78 1350.22 1177.36 1325.18 1128.35 C 1313.39 1146.7 1300.74 1154.65 1278.36 1155.01 C 1280.38 1224.07 1277.59 1295.09 1278.25 1364.3 C 1278.49 1388.51 1252.38 1394.33 1233.07 1399.86 C 1224.38 1429.49 1222.87 1439.42 1192.9 1453.74 C 1204.81 1488.21 1209.14 1527.69 1202.85 1563.78 C 1228.77 1563.77 1236.59 1574.96 1236.27 1600.54 C 1236.09 1614.73 1235.83 1629.97 1236.51 1644.1 C 1287.21 1657.33 1309.99 1705.55 1306.97 1755.12 C 1304.85 1789.82 1275.4 1782.1 1248.89 1782 L 1181.11 1781.94 C 1160.68 1781.86 1140.25 1781.92 1119.82 1782.11 C 1101.89 1782.33 1074.31 1786.97 1062.58 1772.83 C 1055.33 1764.08 1056.67 1748.83 1057.5 1738.1 C 1061.3 1689.32 1063.33 1639.37 1068.25 1590.76 C 1070.06 1566.93 1086.59 1563.56 1106.84 1563.93 C 1109.98 1528.36 1108.46 1511.99 1098.96 1477.84 C 1070.15 1482.82 977.763 1482.66 949.275 1477.72 C 938.867 1508.96 937.981 1531.36 940.876 1564.09 C 953.581 1563.52 975.595 1565.04 977.666 1581.06 C 984.925 1637.2 987.157 1696.01 991.561 1752.56 C 994.486 1790.12 948.767 1781.95 924.565 1781.94 L 821.911 1781.94 C 803.708 1781.96 785.233 1782.3 767.036 1782.39 C 761.455 1782.09 755.778 1780.93 750.989 1778.11 C 738.319 1770.56 740.905 1758.47 740.542 1746.46 C 739.153 1700.44 763.651 1656.58 810.589 1644.67 L 811.998 1644.32 C 812.516 1609.29 800.324 1566.33 844.948 1563.37 C 839.131 1525.68 843.257 1489.85 854.393 1453.66 C 850.733 1451.96 847.148 1450.09 843.647 1448.08 C 823.888 1436.72 819.035 1420.17 813.59 1399.82 C 800.738 1396.29 771.147 1387.86 770.052 1371.52 C 768.493 1348.29 769.509 1323.91 769.558 1300.5 L 769.513 1154.42 C 747.73 1153.83 734.672 1149.07 723.669 1128.84 C 700.118 1162.25 685.487 1232.3 684.931 1273.87 C 711.659 1292.2 725.001 1319.41 717.512 1351.7 C 739.112 1373.61 734.045 1388.92 737.925 1417.21 C 740.75 1437.8 730.784 1454.73 708.588 1456.26 C 674.163 1458.63 674.209 1428.62 672.859 1403.99 C 663.501 1407.02 656.95 1408.58 647.336 1410.2 C 648.994 1430.55 659.805 1458.36 639.108 1472.09 C 630.196 1478 622.335 1479.42 611.865 1477.23 C 588.059 1472.23 588.516 1451.36 585.803 1431.9 C 583.143 1413.06 581.277 1394.69 578.708 1375.93 C 576.728 1365.71 569.992 1356.27 569.269 1345.73 C 567.052 1313.42 578.832 1289.06 606.489 1272.58 C 608.299 1184.86 642.185 1092.87 705.182 1030.77 C 704.796 985.819 718.98 952.956 770.188 953.132 C 770.021 949.593 769.865 940.145 772.207 937.547 C 794.086 913.277 859.691 910.834 891.319 906.302 C 901.363 904.862 914.567 905.624 921.624 903.841 L 922.161 901.542 C 920.123 899.73 920.192 900.491 916.295 900.535 L 842.33 900.94 C 791.381 901.081 752.509 904.002 712.135 864.48 C 679.76 832.789 674.194 800.434 674.076 757.506 C 619.314 746.931 606.156 731.07 610.274 675.662 C 611.184 663.41 610.351 643.895 610.369 631.005 L 610.394 566.281 C 610.402 552.831 608.809 521.107 615.785 509.845 C 626.264 492.929 655.466 484.783 674.087 480.954 C 674.149 431.016 668.323 388.216 700.998 347.093 C 724.066 318.061 751.637 303.276 788.008 298.39 z"/>
<path transform="translate(0,0)" fill="rgb(26,164,220)" d="M 793.743 311.79 C 812.923 310.117 853.741 311.344 874.579 311.347 L 1033.11 311.345 L 1178.44 311.307 C 1198.23 311.302 1236.34 310.224 1254.56 312.192 C 1270.87 314.158 1283.05 316.995 1297.7 324.641 C 1334.24 343.719 1357.67 380.234 1359.17 421.494 C 1359.79 438.501 1359.63 455.912 1359.63 473.143 L 1359.33 591.178 L 1359.27 716.012 C 1359.27 771.935 1365.86 825.124 1315.03 862.957 C 1287.33 883.578 1263.52 887.744 1229.57 886.982 L 909.577 886.943 L 832.108 886.925 C 821.422 886.922 792.459 887.682 783.817 885.36 C 778.584 884.912 771.909 883.015 766.87 881.435 C 722.155 867.414 690.757 826.475 688.742 779.702 C 687.581 752.748 688.1 725.678 688.113 698.732 L 688.148 554.732 L 688.09 462.034 C 688.088 447.437 687.339 421 689.557 407.874 C 693.098 386.201 702.77 365.996 717.431 349.648 C 736.707 328.107 764.749 313.568 793.743 311.79 z"/>
<path transform="translate(0,0)" fill="rgb(20,140,190)" d="M 1254.56 312.192 C 1270.87 314.158 1283.05 316.995 1297.7 324.641 C 1334.24 343.719 1357.67 380.234 1359.17 421.494 C 1359.79 438.501 1359.63 455.912 1359.63 473.143 L 1359.33 591.178 L 1359.27 716.012 C 1359.27 771.935 1365.86 825.124 1315.03 862.957 C 1287.33 883.578 1263.52 887.744 1229.57 886.982 C 1243.9 881.939 1263.57 867.879 1274.51 857.234 C 1311.01 821.708 1312.75 781.141 1312.83 733.553 L 1312.69 667.874 L 1312.75 459.548 C 1312.65 410.788 1311.65 372.205 1277.55 333.581 C 1269.95 324.982 1261.94 319.813 1254.56 312.192 z"/>
<path transform="translate(0,0)" fill="rgb(126,214,246)" d="M 783.817 885.36 C 778.584 884.912 771.909 883.015 766.87 881.435 C 722.155 867.414 690.757 826.475 688.742 779.702 C 687.581 752.748 688.1 725.678 688.113 698.732 L 688.148 554.732 L 688.09 462.034 C 688.088 447.437 687.339 421 689.557 407.874 C 693.098 386.201 702.77 365.996 717.431 349.648 C 736.707 328.107 764.749 313.568 793.743 311.79 L 792.45 312.786 C 787.363 316.631 778.242 320.623 771.829 325.31 C 741.654 347.363 723.31 378.622 717.867 415.518 C 715.235 433.362 716 455.495 715.994 473.925 L 715.991 559.194 L 716.023 693.693 C 716.018 718.878 715.164 744.45 716.382 769.591 C 717.003 782.41 717.876 797.506 722.429 809.52 C 731.011 832.16 740.118 850.263 758.406 866.841 C 761.481 869.628 783.91 884.769 784.019 885.098 L 783.817 885.36 z"/>
<path transform="translate(0,0)" fill="rgb(38,37,96)" d="M 1108.09 472.676 C 1119.46 474.095 1134.15 492.292 1146.12 498.534 C 1159.87 505.703 1170.15 510.628 1185.09 515.38 C 1198.88 519.913 1213.15 522.851 1227.61 524.138 C 1245.75 525.824 1264.16 523.725 1281.9 526.106 C 1283.91 526.375 1285.25 529.896 1285.84 531.573 C 1284.98 540.179 1279.37 539.939 1272.11 541.242 C 1281.47 592.9 1275.74 643.551 1237.32 682.327 C 1227.48 691.611 1217.12 698.439 1204.1 702.487 C 1184.93 708.353 1164.21 706.293 1146.57 696.768 C 1088.71 666.071 1076.99 578.896 1097.69 522.88 C 1101.36 512.948 1106.61 503.653 1111.58 494.341 C 1110.95 493.819 1110.33 493.29 1109.71 492.755 C 1101.52 485.643 1097.46 480.17 1108.09 472.676 z"/>
<path transform="translate(0,0)" fill="rgb(254,254,254)" d="M 1123.18 504.444 C 1160.95 532.331 1209.9 546.882 1256.68 541.831 C 1267.41 577.857 1261.83 624.61 1240.45 655.781 C 1215.74 691.824 1180.24 702.742 1142.95 677.142 C 1125.47 662.113 1116.99 647.648 1109.21 625.92 C 1129.18 650.931 1154.88 653.825 1173.93 624.754 C 1185.16 607.604 1186.6 585.737 1182.27 566.089 C 1177 542.174 1158.3 520.716 1131.51 527.393 C 1118.48 530.653 1110.86 542.397 1104.68 553.751 C 1109.86 531.647 1112.08 524.466 1123.18 504.444 z"/>
<path transform="translate(0,0)" fill="rgb(38,37,96)" d="M 934.478 472.861 C 939.803 473.092 943.567 474.911 945.166 480.103 C 944.01 487.268 940.589 489.617 935.465 494.802 C 948.003 516.362 954.41 532.891 958.231 558.918 C 967.725 623.582 928.916 717.633 850.338 704.365 C 836.663 702.056 823.72 693.921 812.747 685.089 C 807.021 679.813 801.845 673.97 797.299 667.649 C 770.053 629.815 768.504 585.712 775.756 541.565 C 769.256 540.206 762.363 539.196 760.988 531.696 C 763.099 526.061 767.023 525.224 772.472 525.379 C 819.123 526.708 865.234 522.245 905.192 495.715 C 915.238 489.045 923.656 480.576 933.499 473.548 L 934.478 472.861 z"/>
<path transform="translate(0,0)" fill="rgb(254,254,254)" d="M 923.099 504.856 C 931.707 509.558 940.493 543.549 942.447 552.825 C 925.652 527.305 901.886 512.564 877.193 541.076 C 856.623 565.552 857.431 616.93 883.667 637.07 C 905.54 653.86 924.529 643.072 938.345 624.179 C 931.522 645.105 922.612 659.332 907.033 674.505 C 905.252 675.925 903.436 677.302 901.586 678.633 C 866.687 703.513 828.448 689.117 806.824 655.344 C 784.904 621.107 782.573 581.718 790.811 542.741 C 839.476 545.128 883.929 534.615 923.099 504.856 z"/>
<path transform="translate(0,0)" fill="rgb(38,37,96)" d="M 1016.61 733.383 C 1044.1 729.675 1074.17 744.02 1089.39 767.152 C 1095.68 776.703 1101.27 796.347 1088.6 803.586 C 1073.04 812.478 1059.7 795.973 1047.36 789.194 C 1042.38 786.453 1038.2 785.36 1032.67 784.049 C 1022.5 782.627 1010.56 783.701 1001.64 788.749 C 989.409 795.673 974.4 814.286 958.939 802.839 C 954.651 799.637 951.85 794.829 951.181 789.519 C 948.992 773.437 966.52 755.68 978.706 747.2 C 990.426 739.045 1002.56 734.965 1016.61 733.383 z"/>
<path transform="translate(0,0)" fill="rgb(223,30,42)" d="M 1014.16 748.193 C 1038.93 746.108 1058.52 750.665 1074.52 771.108 C 1078.64 776.381 1084.34 783.624 1081.28 790.775 C 1079.56 791.609 1077.65 792.465 1075.82 791.085 C 1061.8 780.518 1052.82 774.65 1035.5 770.062 C 1020.92 766.907 1003.85 770.266 991.125 778.228 C 983.667 782.895 976.754 790.172 968.098 791.348 C 962.991 788.416 967.711 779.589 970.334 775.964 C 981.672 760.293 995.21 751.895 1014.16 748.193 z"/>
<path transform="translate(0,0)" fill="rgb(26,164,220)" d="M 783.549 960.178 C 792.465 964.368 799.94 966.548 809.39 969.19 C 916.099 992.45 1098.61 993.627 1207.31 975.459 C 1228.15 971.786 1244.41 968.523 1264.13 960.454 L 1264.09 1227.09 L 1264.09 1314.5 C 1264.09 1323.67 1265.84 1369.27 1260.61 1373.46 C 1248.36 1383.25 1217.7 1391.06 1201.7 1393.57 C 1097.05 1413.63 911.569 1414.17 809.695 1384.57 C 797.893 1379.66 793.43 1379.14 783.528 1370.59 C 782.631 1356.95 783.212 1338.2 783.263 1324.18 L 783.44 1242.62 L 783.549 960.178 z"/>
<path transform="translate(0,0)" fill="rgb(20,140,190)" d="M 1207.31 975.459 C 1228.15 971.786 1244.41 968.523 1264.13 960.454 L 1264.09 1227.09 L 1264.09 1314.5 C 1264.09 1323.67 1265.84 1369.27 1260.61 1373.46 C 1248.36 1383.25 1217.7 1391.06 1201.7 1393.57 C 1205.5 1386.02 1210.46 1376.75 1211.02 1368.47 C 1212.62 1344.85 1212.04 1320.25 1212.04 1296.5 L 1211.98 1166.46 L 1212.05 1042.64 C 1212.05 1023.21 1212.6 999.012 1210.4 979.411 C 1210.11 976.823 1208.93 976.499 1207.31 975.459 z"/>
<path transform="translate(0,0)" fill="rgb(126,214,246)" d="M 783.549 960.178 C 792.465 964.368 799.94 966.548 809.39 969.19 L 809.412 1243.61 L 809.596 1343.07 C 809.584 1356.07 810.199 1371.99 809.695 1384.57 C 797.893 1379.66 793.43 1379.14 783.528 1370.59 C 782.631 1356.95 783.212 1338.2 783.263 1324.18 L 783.44 1242.62 L 783.549 960.178 z"/>
<path transform="translate(0,0)" fill="rgb(38,37,96)" d="M 1007.54 1040.09 C 1092.41 1031.13 1168.45 1092.73 1177.28 1177.62 C 1186.11 1262.5 1124.39 1338.44 1039.49 1347.15 C 954.781 1355.83 879.039 1294.27 870.226 1209.57 C 861.412 1124.87 922.857 1049.03 1007.54 1040.09 z"/>
<path transform="translate(0,0)" fill="rgb(41,94,160)" d="M 1010.84 1054.35 C 1087.61 1047.2 1155.7 1103.53 1163.05 1180.29 C 1170.4 1257.05 1114.24 1325.28 1037.5 1332.83 C 960.478 1340.4 891.951 1283.99 884.576 1206.95 C 877.201 1129.92 933.781 1061.53 1010.84 1054.35 z"/>
<path transform="translate(0,0)" fill="rgb(38,37,96)" d="M 1011.85 1076.92 C 1076.55 1070.32 1134.28 1117.59 1140.57 1182.33 C 1146.85 1247.06 1099.29 1304.56 1034.53 1310.53 C 970.209 1316.45 913.194 1269.29 906.953 1205.01 C 900.712 1140.72 947.591 1083.47 1011.85 1076.92 z"/>
<path transform="translate(0,0)" fill="rgb(56,230,225)" d="M 1017.86 1090.96 C 1074.67 1087.64 1123.39 1131.06 1126.61 1187.88 C 1129.83 1244.7 1086.33 1293.35 1029.51 1296.47 C 972.821 1299.58 924.321 1256.2 921.11 1199.53 C 917.898 1142.85 961.188 1094.27 1017.86 1090.96 z"/>
<path transform="translate(0,0)" fill="rgb(26,164,220)" d="M 1095.73 1577.39 C 1132.84 1575.91 1172.64 1577.52 1209.91 1577.66 C 1214.31 1577.68 1220.66 1583.08 1221.15 1587.24 C 1223.11 1604.05 1221.64 1622.1 1221.63 1639.26 C 1200.36 1638.55 1173.96 1638.05 1155.71 1651.52 C 1152.27 1654.07 1147.04 1658.31 1145.22 1662.12 L 1146.02 1663.06 C 1153.94 1664.2 1176.11 1656.9 1185.42 1655 C 1192.69 1653.55 1200.09 1652.93 1207.49 1653.13 C 1235.11 1653.94 1254.81 1664.04 1273.35 1683.86 C 1284.98 1699.34 1288.58 1709.64 1292.33 1728.33 C 1219.18 1728.86 1146.04 1728.83 1072.9 1728.24 C 1072.95 1712.55 1080.79 1591.97 1084.17 1585.12 C 1086.36 1580.68 1091.26 1578.62 1095.73 1577.39 z"/>
<path transform="translate(0,0)" fill="url(#Gradient1)" d="M 838.634 1577.37 C 871.39 1576.15 905.202 1577.83 938.035 1576.9 C 944.441 1576.72 955.028 1577.17 960.438 1580.49 C 968.254 1591.45 967.78 1619.07 968.86 1633.18 L 975.983 1728.04 C 918.675 1728.85 860.558 1728.6 803.219 1728.52 L 755.902 1728.51 C 765.573 1674.19 806.468 1647.64 861.165 1654.9 C 870.689 1656.16 895.043 1664.76 903.225 1662.58 L 903.478 1661.43 C 886.88 1637.58 852.21 1637.8 826.23 1639.57 C 826.146 1628.41 825.689 1617.18 825.726 1606.03 C 825.769 1593.22 824.224 1581.6 838.634 1577.37 z"/>
<path transform="translate(0,0)" fill="rgb(41,94,160)" d="M 829.836 1404.63 C 931.425 1428.54 1115.79 1427.19 1218.1 1404.62 C 1213.25 1417.4 1211.19 1426.12 1199.97 1434.52 C 1193.38 1438.63 1186.41 1442.11 1179.15 1444.89 C 1097.6 1476.73 944.785 1476.91 862.201 1442.26 C 840.646 1433.22 837.722 1425 829.836 1404.63 z"/>
<path transform="translate(0,0)" fill="rgb(41,94,160)" d="M 1126.81 917.716 C 1141.02 918.028 1261.5 928.623 1261.71 945.566 C 1250.81 956.301 1184.02 964.464 1165.87 966.352 C 1080.89 976.587 980.575 973.865 894.806 967.885 C 876.86 966.633 796.432 957.257 786.073 944.866 C 786.915 929.627 893.75 919.881 907.141 918.589 C 911.592 918.136 916.632 917.991 921.147 917.751 C 921.057 924.655 921.022 931.559 921.043 938.464 C 938.314 946.682 994.153 951.442 1018.15 951.829 C 1040.55 952.191 1105.1 950.391 1125.65 937.621 C 1128.04 936.139 1126.97 921.784 1126.81 917.716 z"/>
<path transform="translate(0,0)" fill="rgb(26,164,220)" d="M 635.141 1276.1 C 668.185 1271.08 698.999 1293.92 703.823 1326.99 C 708.647 1360.06 685.638 1390.74 652.538 1395.37 C 619.708 1399.97 589.332 1377.19 584.547 1344.39 C 579.763 1311.58 602.367 1281.08 635.141 1276.1 z"/>
<path transform="translate(0,0)" fill="rgb(26,164,220)" d="M 1396.69 1275.99 C 1429.78 1272.24 1459.6 1296.14 1463.16 1329.25 C 1466.72 1362.37 1442.66 1392.06 1409.52 1395.43 C 1376.65 1398.78 1347.24 1374.95 1343.71 1342.09 C 1340.18 1309.24 1363.85 1279.7 1396.69 1275.99 z"/>
<path transform="translate(0,0)" fill="rgb(41,94,160)" d="M 1373.97 495.76 C 1386.7 499.001 1413.82 506.65 1419.75 518.054 C 1424.66 527.515 1423.19 562.026 1423.18 573.479 L 1423.18 643.31 L 1423.23 689.704 C 1423.23 709.042 1426.92 718.155 1409.82 730.255 C 1398.94 736.295 1385.96 739.628 1373.98 742.839 L 1373.97 495.76 z"/>
<path transform="translate(0,0)" fill="rgb(41,94,160)" d="M 668.587 497.067 L 672.395 496.974 C 674.923 502.251 672.757 715.592 673.641 743.431 C 661.67 740.509 654.239 737.89 643.064 732.797 C 635.215 728.649 628.731 724.721 625.764 715.76 C 623.732 709.627 623.768 553.903 624.632 536.656 C 624.896 531.385 625.252 522.545 628.052 518.108 C 635.739 505.926 655.684 500.792 668.587 497.067 z"/>
<path transform="translate(0,0)" fill="rgb(56,230,225)" d="M 1343.31 1051.53 C 1348.47 1055.26 1359.06 1070.28 1363.2 1076.08 C 1401.82 1130.17 1424.01 1198.96 1427.27 1264.85 C 1422.75 1263.88 1418.11 1263.12 1413.55 1262.32 C 1398.86 1260.46 1391.13 1262.28 1376.84 1266.24 C 1373.08 1210.28 1361.38 1161.53 1331.92 1112.95 C 1338.73 1088.97 1341.27 1076.65 1343.31 1051.53 z"/>
<path transform="translate(0,0)" fill="rgb(56,230,225)" d="M 703.541 1052.83 C 704.731 1054.44 706.849 1073.54 707.56 1077.78 C 709.637 1090.17 712.587 1101.17 716.017 1113.17 C 684.442 1171.32 677.095 1201.36 670.815 1266.36 C 656.435 1261.65 649.854 1260.85 634.748 1262.08 C 630.984 1262.55 624.641 1264.09 620.729 1264.9 C 623.399 1190.81 654.224 1108.25 703.541 1052.83 z"/>
<path transform="translate(0,0)" fill="rgb(41,94,160)" d="M 1278.76 966.549 C 1300.05 967.174 1319.14 976.605 1325.13 998.415 C 1335.04 1034.5 1327.68 1089.36 1311.52 1122.4 C 1303.1 1136.41 1294.28 1139.87 1278.9 1140.83 C 1277.81 1084 1278.7 1023.61 1278.76 966.549 z"/>
<path transform="translate(0,0)" fill="rgb(41,94,160)" d="M 759.323 967.114 L 769.219 966.556 L 769.099 1140.55 C 755.621 1139.84 750.589 1139.12 741.023 1129.53 C 722.694 1105.3 718.886 1062.9 718.687 1033.41 C 718.476 1002.14 724.201 975.062 759.323 967.114 z"/>
<path transform="translate(0,0)" fill="rgb(26,164,220)" d="M 754.531 1743.03 L 977.008 1743.01 L 977.11 1747.67 C 977.265 1756.79 978.088 1760.44 971.878 1766.85 C 969.462 1767.74 967.471 1768.31 964.845 1768.31 C 898.853 1768.43 832.781 1769.04 766.803 1768.2 C 751.002 1768 754.089 1755.2 754.531 1743.03 z"/>
<path transform="translate(0,0)" fill="rgb(26,164,220)" d="M 1071.35 1743.16 L 1292.96 1743.1 C 1293.11 1752.44 1294.32 1758.22 1289.68 1766.09 C 1286.19 1767.8 1283.49 1768.3 1279.57 1768.29 C 1213.95 1768.24 1148.21 1768.96 1082.61 1768.07 C 1068.54 1767.88 1070.91 1753.36 1071.35 1743.16 z"/>
<path transform="translate(0,0)" fill="rgb(20,140,190)" d="M 1107.58 912.41 L 1109.46 912.229 C 1111.74 915.225 1111.5 923.887 1111.78 928.563 C 1060.61 941.633 994.716 938.446 943.091 929.769 C 938.923 929.055 940.448 929.989 937.697 927.744 C 936.139 923.384 937.231 917.712 937.682 912.873 C 989.613 922.325 1055.49 919.58 1107.58 912.41 z"/>
<path transform="translate(0,0)" fill="rgb(26,164,220)" d="M 1451.11 1393.07 L 1451.92 1394.93 C 1450.98 1407.87 1448.77 1420.72 1447.25 1433.62 C 1445.96 1444.56 1444.81 1459.63 1432.46 1463.7 C 1426.83 1465.55 1420.97 1462.95 1416.05 1460.35 C 1405.58 1448.93 1413.09 1424.91 1415.25 1409.9 C 1431.4 1405.33 1437.25 1402.51 1451.11 1393.07 z"/>
<path transform="translate(0,0)" fill="rgb(26,164,220)" d="M 712.491 1367.5 C 721.201 1374.9 720.946 1390.19 722.122 1400.81 C 724.063 1418.33 728.473 1446.81 700.925 1442.33 C 684.929 1434.32 687.592 1412.74 686.641 1396.46 C 700.162 1385.47 702.943 1382.3 712.491 1367.5 z"/>
<path transform="translate(0,0)" fill="rgb(26,164,220)" d="M 595.573 1392.6 C 609.389 1402.2 615.61 1405.04 631.767 1409.47 C 633.028 1419.5 635.026 1429.45 636.242 1439.39 C 637.382 1448.71 638.225 1452.03 632.672 1459.26 C 603.238 1479.49 600.985 1439.35 599.016 1420.91 C 598.015 1411.53 596.59 1401.98 595.573 1392.6 z"/>
<path transform="translate(0,0)" fill="rgb(56,230,225)" d="M 1188.05 1498.41 L 1188.91 1498.62 C 1191.59 1502.27 1191.31 1527.02 1191.4 1533.05 C 1169.21 1533.02 1147.03 1532.72 1124.86 1532.15 L 1123.72 1531.83 C 1122.17 1529.19 1121.26 1514.59 1120.73 1510.19 C 1139.99 1505.87 1168.16 1501.61 1188.05 1498.41 z"/>
<path transform="translate(0,0)" fill="rgb(56,230,225)" d="M 858.212 1498.16 C 880.149 1501 904.365 1506.46 926.87 1509.85 C 925.808 1517.4 925.524 1524.58 925.114 1532.19 C 902.341 1532.8 879.56 1533.11 856.778 1533.12 C 856.675 1521 856.828 1510.23 858.212 1498.16 z"/>
<path transform="translate(0,0)" fill="rgb(26,164,220)" d="M 1335.24 1367.65 C 1343.81 1382.37 1346.83 1386.77 1361.12 1396.69 C 1358.55 1413.13 1363.57 1432.3 1348.3 1441.51 C 1335.47 1444.75 1329.39 1441.64 1323.39 1430 C 1324.95 1410.39 1324.14 1382.6 1335.24 1367.65 z"/>
<path transform="translate(0,0)" fill="rgb(56,230,225)" d="M 1178.34 1460.95 L 1179.53 1460.88 C 1183.37 1464.31 1186.16 1480.62 1187.52 1486.61 C 1166.51 1490.61 1144.38 1494.1 1123.23 1497.72 C 1120.73 1498.21 1121.9 1498.38 1119.73 1497.36 C 1117.08 1491.94 1115.31 1483.85 1113.76 1477.78 C 1135.81 1472.86 1157.01 1468.6 1178.34 1460.95 z"/>
<path transform="translate(0,0)" fill="rgb(56,230,225)" d="M 866.74 1459.82 C 886.457 1468.02 912.729 1473.4 933.999 1478.26 L 928.498 1498.66 C 906.076 1494.19 882.919 1491.07 860.21 1486.55 C 861.843 1478.04 864.578 1468.3 866.74 1459.82 z"/>
<path transform="translate(0,0)" fill="rgb(56,230,225)" d="M 1122.75 1543.15 C 1144.62 1543.1 1168.75 1544.2 1191.03 1544.43 C 1190.12 1550.42 1189.42 1556.82 1188.65 1562.86 C 1166.49 1563.29 1143.2 1562.99 1120.95 1563.04 C 1121.81 1557.29 1122.26 1549.12 1122.75 1543.15 z"/>
<path transform="translate(0,0)" fill="rgb(56,230,225)" d="M 901.462 1543.45 L 924.938 1542.99 C 925.415 1550.07 926.032 1555.81 926.973 1562.85 L 885.5 1562.82 L 860.015 1562.76 C 858.998 1557.53 858.244 1549.75 857.552 1544.28 C 872.191 1544.13 886.828 1543.85 901.462 1543.45 z"/>
</svg>