<svg width="913" height="1059" viewBox="0 0 913 1059" fill="none" xmlns="http://www.w3.org/2000/svg">
<path d="M165.276 8.89716C166.898 10.2667 168.451 11.6767 169.982 13.1476C172.465 15.471 175.132 17.5441 177.794 19.6567C179.87 21.3097 181.922 22.9885 183.968 24.6784C186.899 27.097 189.858 29.477 192.839 31.8347C202.094 39.2295 211.029 46.9398 219.702 55.0065C221.862 57.0106 224.078 58.9367 226.315 60.8542C231.174 65.0903 235.724 69.6317 240.27 74.1977C241.711 75.6449 243.159 77.0867 244.606 78.528C249.835 83.7529 254.843 89.0965 259.651 94.7097C261.064 96.2545 262.481 97.7966 263.901 99.3347C268.93 104.914 273.522 110.787 278.111 116.728C279.729 118.81 281.366 120.876 283.007 122.94C290.854 132.852 298.173 143.022 305.193 153.534C306.502 155.487 307.826 157.427 309.159 159.362C351.498 221.189 380.912 294.042 394.651 367.71C394.861 368.829 395.07 369.948 395.286 371.102C398.744 389.907 401.057 408.667 402.651 427.71C402.74 428.711 402.83 429.713 402.921 430.745C403.76 441.029 403.797 451.265 403.792 461.577C403.794 463.566 403.797 465.554 403.801 467.542C403.809 472.973 403.81 478.404 403.811 483.835C403.813 489.705 403.821 495.575 403.827 501.445C403.842 514.93 403.847 528.416 403.852 541.902C403.854 548.574 403.858 555.246 403.862 561.918C403.875 584.783 403.885 607.648 403.889 630.514C403.889 631.947 403.889 633.38 403.889 634.812C403.89 636.249 403.89 637.685 403.89 639.121C403.89 642.002 403.891 644.884 403.891 647.765C403.892 648.836 403.892 648.836 403.892 649.929C403.895 673.095 403.911 696.26 403.935 719.426C403.959 743.952 403.973 768.479 403.974 793.006C403.974 795.701 403.974 798.395 403.975 801.09C403.975 801.754 403.975 802.417 403.975 803.101C403.976 813.092 403.985 823.084 403.999 833.076C404.014 844.446 404.019 855.817 404.011 867.187C404.007 872.984 404.008 878.78 404.022 884.577C404.035 889.892 404.034 895.207 404.022 900.523C404.02 902.436 404.023 904.35 404.031 906.264C404.082 918.088 403.131 929.142 400.651 940.71C400.418 941.808 400.185 942.905 399.946 944.037C395.222 965.329 384.87 986.217 370.651 1002.71C369.543 1004.01 369.543 1004.01 368.413 1005.33C366.208 1007.84 363.945 1010.28 361.651 1012.71C360.856 1013.58 360.06 1014.45 359.241 1015.35C336.035 1039.85 301.01 1055.98 267.315 1057.9C263.806 1057.97 260.302 1057.99 256.793 1057.98C255.474 1057.99 254.155 1057.99 252.796 1058C249.217 1058.01 245.638 1058.01 242.06 1058.01C239.051 1058.01 236.042 1058.02 233.034 1058.02C225.922 1058.03 218.811 1058.03 211.699 1058.03C204.413 1058.02 197.127 1058.03 189.841 1058.05C183.541 1058.07 177.242 1058.08 170.943 1058.07C167.2 1058.07 163.457 1058.07 159.714 1058.09C123.296 1058.21 91.4163 1051.83 61.6511 1029.71C60.7153 1029.02 59.7794 1028.32 58.8152 1027.61C33.6657 1007.92 16.3816 982.573 6.40115 952.397C6.16694 951.712 5.93274 951.028 5.69143 950.322C-0.0762501 931.999 0.209825 913.033 0.253337 894.044C0.2592 890.023 0.24756 886.002 0.238276 881.981C0.224427 874.95 0.221613 867.918 0.226237 860.887C0.233095 850.43 0.222783 839.973 0.209284 829.517C0.184422 809.75 0.179845 789.984 0.181742 770.218C0.183117 754.95 0.179295 739.681 0.171824 724.413C0.170774 722.217 0.169726 720.02 0.168681 717.824C0.168162 716.734 0.167644 715.643 0.167109 714.52C0.166589 713.428 0.166073 712.335 0.165538 711.21C0.165014 710.116 0.164491 709.021 0.163951 707.894C0.149375 677.132 0.141067 646.37 0.145686 615.608C0.145858 614.449 0.146043 613.291 0.14622 612.097C0.147109 606.224 0.148048 600.351 0.149012 594.478C0.149203 593.312 0.149395 592.145 0.149592 590.944C0.149979 588.585 0.150373 586.227 0.150767 583.868C0.156736 547.177 0.141297 510.486 0.109156 473.795C0.0730452 432.536 0.0537518 391.277 0.0586955 350.018C0.0591655 345.615 0.0595752 341.212 0.0599467 336.809C0.0600491 335.725 0.0601464 334.641 0.0602519 333.524C0.0614446 317.19 0.0495129 300.856 0.0308024 284.521C0.00952144 265.934 0.00575408 247.348 0.0250957 228.761C0.0353877 218.372 0.0320449 207.984 0.00857039 197.596C-0.00574761 190.64 -0.0015845 183.684 0.0170238 176.728C0.027094 172.776 0.0297217 168.824 0.00969954 164.872C-0.194643 121.606 10.3682 83.6158 40.6511 51.7097C41.1418 51.1811 41.6324 50.6526 42.138 50.1081C64.3362 26.2995 132.617 -16.7283 165.276 8.89716Z" fill="#431C92"/>
<path d="M205.651 4.70967C241.964 3.85878 278.274 3.20884 314.595 2.82025C318.903 2.77399 323.212 2.7261 327.52 2.6772C328.378 2.66749 329.235 2.65779 330.119 2.64779C343.922 2.48771 357.72 2.19654 371.52 1.85501C385.73 1.50634 399.937 1.30295 414.151 1.22839C422.117 1.1826 430.071 1.07366 438.033 0.797656C492.122 -1.02388 492.122 -1.02388 510.492 15.323C518.204 22.7295 524.823 30.9347 531.06 39.5949C533.727 43.139 536.688 46.4136 539.651 49.7097C590.279 107.566 626.436 178.969 643.589 253.897C643.842 255.002 644.095 256.107 644.356 257.246C652.817 294.815 657.086 332.325 656.964 370.835C656.961 372.646 656.961 372.646 656.958 374.494C656.875 407.609 654.473 440.108 648.651 472.71C648.529 473.405 648.406 474.1 648.28 474.817C640.761 517.314 630.938 572.279 606.651 608.71C603.688 609.079 603.688 609.079 599.805 609.07C599.093 609.073 598.381 609.076 597.647 609.078C595.248 609.083 592.85 609.067 590.452 609.05C588.737 609.049 587.023 609.05 585.308 609.052C580.643 609.052 575.978 609.035 571.313 609.014C566.442 608.995 561.57 608.993 556.699 608.99C547.469 608.98 538.24 608.956 529.011 608.926C518.505 608.892 508 608.876 497.495 608.861C475.88 608.829 454.266 608.776 432.651 608.71C432.649 607.916 432.647 607.123 432.644 606.305C432.584 586.762 432.508 567.218 432.416 547.675C432.371 538.223 432.332 528.77 432.305 519.318C432.068 434.108 432.068 434.108 419.382 350.007C418.694 346.902 418.04 343.793 417.401 340.678C409.805 303.814 397.389 266.893 381.651 232.71C381.18 231.686 380.709 230.662 380.224 229.608C376.81 222.253 373.27 214.966 369.651 207.71C368.882 206.165 368.882 206.165 368.097 204.589C349.776 168.044 327.347 133.508 301.651 101.71C301.109 101.035 300.566 100.361 300.007 99.6667C293.092 91.0973 286.03 82.7433 278.468 74.737C276.487 72.638 274.604 70.4807 272.737 68.28C267.378 62.1243 261.522 56.4322 255.745 50.6733C253.719 48.652 251.698 46.6255 249.677 44.5983C243.506 38.4237 237.345 32.3227 230.651 26.7097C229.412 25.6299 228.175 24.5479 226.94 23.4636C220.508 17.8553 214.062 12.325 207.312 7.10029C206.764 6.64139 206.216 6.18248 205.651 5.70967C205.651 5.37967 205.651 5.04967 205.651 4.70967Z" fill="#8157C5"/>
<path d="M536.651 4.70965C550.23 4.6864 563.809 4.66867 577.388 4.65784C583.694 4.65264 590.001 4.64559 596.307 4.63421C602.402 4.62328 608.497 4.61735 614.592 4.61477C616.908 4.61294 619.224 4.60935 621.54 4.60392C637.671 4.56763 653.368 4.78442 669.276 7.77215C670.424 7.98767 671.573 8.20318 672.755 8.42523C731.825 20.0171 782.217 48.7318 825.651 89.7096C826.667 90.661 826.667 90.661 827.702 91.6315C831.938 95.7216 835.613 100.211 839.292 104.803C840.787 106.646 842.316 108.462 843.886 110.241C874.759 145.465 893.965 190.565 904.651 235.71C904.86 236.582 905.068 237.453 905.283 238.352C917.2 289.687 912.929 345.676 896.026 395.335C895.766 396.109 895.505 396.883 895.236 397.68C888.958 416.293 881.781 434.469 872.619 451.868C871.619 453.771 870.639 455.683 869.659 457.596C855.149 485.688 833.108 515.545 808.714 535.956C806.281 538.024 803.979 540.212 801.651 542.397C763.087 577.455 711.791 598.917 660.651 606.71C659.254 606.936 657.857 607.162 656.46 607.389C650.429 608.323 644.745 608.789 638.651 608.71C639.179 607.308 639.179 607.308 639.718 605.878C641.072 602.278 642.42 598.677 643.766 595.074C644.34 593.54 644.916 592.007 645.494 590.474C656.898 560.189 666.252 529.454 672.651 497.71C672.888 496.57 673.124 495.43 673.368 494.255C676.305 479.932 678.393 465.51 680.337 451.026C680.638 448.805 680.952 446.586 681.268 444.367C684.613 420.506 685.023 396.699 685.026 372.647C685.027 371.889 685.028 371.131 685.029 370.349C685.052 352.062 684.792 333.896 682.651 315.71C682.554 314.877 682.456 314.045 682.355 313.188C681.665 307.474 680.87 301.778 680.026 296.085C679.837 294.792 679.837 294.792 679.643 293.473C667.385 210.709 636.89 130.982 586.651 63.7097C585.975 62.8011 585.975 62.8011 585.284 61.8742C580.279 55.1838 575.044 48.7117 569.609 42.3681C566.937 39.2479 564.356 36.0811 561.839 32.8347C554.58 23.6706 546.305 15.2341 537.939 7.08148C536.651 5.70965 536.651 5.70965 536.651 4.70965Z" fill="#A37FE5"/>
</svg>
